<?xml version="1.0" encoding="UTF-8" standalone="no"?>
<!-- Created with Inkscape (http://www.inkscape.org/) -->

<svg
   width="128"
   height="128"
   id="svg2"
   version="1.1"
   inkscape:version="1.3.2 (091e20e, 2023-11-25, custom)"
   sodipodi:docname="icon.svg"
   xmlns:inkscape="http://www.inkscape.org/namespaces/inkscape"
   xmlns:sodipodi="http://sodipodi.sourceforge.net/DTD/sodipodi-0.dtd"
   xmlns="http://www.w3.org/2000/svg"
   xmlns:svg="http://www.w3.org/2000/svg"
   xmlns:rdf="http://www.w3.org/1999/02/22-rdf-syntax-ns#"
   xmlns:cc="http://creativecommons.org/ns#"
   xmlns:dc="http://purl.org/dc/elements/1.1/">
  <defs
     id="defs4">
    <filter
       inkscape:label="Film Grain"
       inkscape:menu="Image Effects"
       inkscape:menu-tooltip="Adds a small scale graininess"
       style="color-interpolation-filters:sRGB"
       id="filter69"
       x="0"
       y="0"
       width="1"
       height="1">
      <feTurbulence
         type="fractalNoise"
         numOctaves="3"
         baseFrequency="1"
         seed="0"
         result="result0"
         id="feTurbulence68" />
      <feColorMatrix
         result="result4"
         values="0"
         type="saturate"
         id="feColorMatrix68" />
      <feComposite
         in="SourceGraphic"
         in2="result4"
         operator="arithmetic"
         k1="1.25"
         k2="0.5"
         k3="0.5"
         result="result2"
         id="feComposite68"
         k4="0" />
      <feBlend
         result="result5"
         mode="normal"
         in="result2"
         in2="SourceGraphic"
         id="feBlend68" />
      <feComposite
         in="result5"
         in2="SourceGraphic"
         operator="in"
         result="result3"
         id="feComposite69" />
    </filter>
  </defs>
  <sodipodi:namedview
     id="base"
     pagecolor="#ffffff"
     bordercolor="#666666"
     borderopacity="1.0"
     inkscape:pageopacity="0.0"
     inkscape:pageshadow="2"
     inkscape:zoom="2.8"
     inkscape:cx="70"
     inkscape:cy="102.32143"
     inkscape:document-units="px"
     inkscape:current-layer="layer1"
     showgrid="false"
     inkscape:window-width="1920"
     inkscape:window-height="1017"
     inkscape:window-x="-8"
     inkscape:window-y="-8"
     inkscape:window-maximized="1"
     inkscape:showpageshadow="2"
     inkscape:pagecheckerboard="0"
     inkscape:deskcolor="#d1d1d1" />
  <metadata
     id="metadata7">
    <rdf:RDF>
      <cc:Work
         rdf:about="">
        <dc:format>image/svg+xml</dc:format>
        <dc:type
           rdf:resource="http://purl.org/dc/dcmitype/StillImage" />
      </cc:Work>
    </rdf:RDF>
  </metadata>
  <g
     inkscape:label="Layer 1"
     inkscape:groupmode="layer"
     id="layer1"
     transform="translate(0,-924.36218)">
    <rect
       style="fill:#003380;fill-opacity:1;stroke:none;stroke-width:0.820269;filter:url(#filter69)"
       id="rect2"
       width="892.84491"
       height="289.1337"
       x="-225.87886"
       y="-899.77075"
       transform="matrix(0.14336196,0,0,0.44270177,32.382438,1322.6923)" />
    <g
       id="g6"
       transform="matrix(0.41948958,0,0,0.4194896,-131.6569,1300.0244)">
      <path
         id="path4"
         style="fill:#d5e5ff;fill-opacity:1;fill-rule:nonzero;stroke:none;stroke-width:1.29112;stroke-linecap:round;stroke-linejoin:round;stroke-miterlimit:4;stroke-dasharray:none;stroke-dashoffset:0;stroke-opacity:1;paint-order:normal"
         d="m 463.70276,-840.33437 c -20.06093,0.35674 -40.20924,4.16539 -58.56771,12.40206 -12.1563,5.47307 -23.59005,12.988 -32.40909,23.07864 -6.99851,7.98618 -12.13035,17.84694 -13.51222,28.45258 -1.37706,10.32564 0.88599,21.01855 6.00935,30.05993 5.99941,10.80727 15.34293,19.40451 25.65812,26.03659 13.40315,8.5684 28.63461,13.98032 44.18389,17.07801 15.76674,3.1174 31.9969,3.76558 47.98086,2.16251 13.06972,18.12668 26.14891,36.25369 39.23707,54.36893 1.23728,1.51604 3.934,1.56355 5.01499,-0.16162 0.94908,-1.29787 0.47337,-2.98851 -0.0562,-4.35075 -5.67195,-17.63083 -11.3439,-35.26166 -17.01586,-52.89249 14.364,-3.67092 28.27684,-9.82861 39.82288,-19.24052 9.47336,-7.73992 17.23285,-17.86664 21.10802,-29.55145 3.56095,-10.56931 3.97141,-22.353 0.23079,-32.93379 -3.49967,-10.14501 -10.20098,-18.93321 -18.19148,-25.98542 -10.15916,-8.9914 -22.36419,-15.41944 -35.08464,-19.97505 -17.39975,-6.19871 -35.97579,-8.80415 -54.40873,-8.54816 z" />
      <path
         style="fill:#003380;fill-opacity:1;fill-rule:nonzero;stroke:none;stroke-width:1.29112;stroke-linecap:round;stroke-linejoin:round;stroke-miterlimit:4;stroke-dasharray:none;stroke-dashoffset:0;stroke-opacity:1;paint-order:normal"
         d="m 466.4221,-837.21168 c -57.69165,-8e-5 -104.46007,29.96498 -104.46025,66.92885 -3.1e-4,36.96414 46.76819,66.92961 104.46025,66.92956 6.06919,-0.004 12.12632,-0.3464 18.10263,-1.02406 l 40.24953,55.77057 -18.57695,-57.74541 c 41.50562,-9.51596 64.63852,-35.68613 64.68444,-63.93066 -1.7e-4,-36.96371 -46.76822,-66.92872 -104.45965,-66.92885 z"
         id="path5"
         inkscape:connector-curvature="0"
         sodipodi:nodetypes="cccccccc" />
      <text
         xml:space="preserve"
         style="font-size:74.3265px;font-family:Stencil;-inkscape-font-specification:Stencil;fill:#d5e5ff;stroke-width:1.27186"
         x="399.46777"
         y="-761.36432"
         id="text5"><tspan
           sodipodi:role="line"
           id="tspan5"
           style="fill:#d5e5ff;stroke-width:1.27186"
           x="399.46777"
           y="-761.36432">&quot;</tspan></text>
      <text
         xml:space="preserve"
         style="font-size:74.3265px;font-family:Stencil;-inkscape-font-specification:Stencil;fill:#d5e5ff;stroke-width:1.27186"
         x="511.99277"
         y="-700.62848"
         id="text6"><tspan
           sodipodi:role="line"
           id="tspan6"
           style="fill:#d5e5ff;stroke-width:1.27186"
           x="511.99277"
           y="-700.62848">&quot;</tspan></text>
    </g>
  </g>
</svg>
